<?xml version="1.0" encoding="UTF-8"?>
<svg width="121px" height="48px" viewBox="0 0 121 48" version="1.1" xmlns="http://www.w3.org/2000/svg" xmlns:xlink="http://www.w3.org/1999/xlink">
    <title>4crypto Logo</title>
    <g id="Symbols" stroke="none" stroke-width="1" fill="none" fill-rule="evenodd">
        <g id="PC-/-Header" transform="translate(-136.000000, -97.000000)">
            <g id="Group-8" transform="translate(127.000000, 88.000000)">
                <g id="Group-5-Copy-7">
                    <g id="Group" transform="translate(23.898734, 19.050633)">
                        <path d="M16.0525881,19.9049511 L16.0525881,23.4225681 C16.9331258,23.9803663 17.4879747,24.9775985 17.4879747,26.0757002 C17.4879747,27.7883369 16.1495138,29.1841772 14.4887807,29.1841772 C12.8280476,29.1841772 11.4895867,27.7883369 11.4895867,26.0757002 C11.4895867,24.9997172 12.0222481,24.0195497 12.874585,23.4552495 L12.874585,19.8721692 C12.4281739,19.5762855 12.0642812,19.1624146 11.8217617,18.6750418 L6.09133449,18.6750418 C5.58545236,19.6931236 4.56653622,20.360296 3.42419399,20.360296 C1.76346093,20.360296 0.425,18.9644558 0.425,17.251819 C0.425,16.7680819 0.532006502,16.2993927 0.734480117,15.8751453 L0.734480117,15.4970387 L0.948125057,15.4970387 C1.47667321,14.6963489 2.34216064,14.1865308 3.30042544,14.1459587 L10.4511192,3.93370968 C10.2786991,3.53688076 10.1878706,3.10412012 10.1878706,2.65847703 C10.1878706,0.945840265 11.5263315,-0.45 13.1870646,-0.45 C14.8477977,-0.45 16.1862586,0.945840265 16.1862586,2.65847703 C16.1862586,4.37111379 14.8477977,5.76695405 13.1870646,5.76695405 C13.1410378,5.76695405 13.0951253,5.76587614 13.0493527,5.76372708 L6.23401453,15.4970387 L12.0127118,15.4970387 C12.5639249,14.6620139 13.481594,14.143342 14.4887807,14.143342 C15.4959674,14.143342 16.4136364,14.6620139 16.9648496,15.4970387 L17.2028991,15.4970387 L17.2028991,15.9275199 C17.3896441,16.3380403 17.4879747,16.7880779 17.4879747,17.251819 C17.4879747,18.3499207 16.9331258,19.3471529 16.0525881,19.9049511 Z" id="Oval-Copy-21" stroke="#FFD601" stroke-width="0.9" stroke-linecap="round" stroke-linejoin="round"></path>
                        <circle id="Oval-2" fill="#FFFFFF" cx="13.4262628" cy="2.37437014" r="1.125"></circle>
                        <circle id="Oval-2-Copy" fill="#FFFFFF" cx="3.12625972" cy="17.3743701" r="1.125"></circle>
                        <circle id="Oval-2-Copy-3" fill="#FFFFFF" cx="14.5269975" cy="17.1250987" r="1.1257286"></circle>
                        <circle id="Oval-2-Copy-2" fill="#FFFFFF" cx="14.1262702" cy="26.1821077" r="1"></circle>
                        <polyline id="Path-2" stroke="#FFFFFF" stroke-width="0.5" stroke-linecap="round" stroke-linejoin="round" points="13.1642661 3 3.14592765 17.3724629 14.5051963 17.3724629 14.3245951 26.3157071"></polyline>
                    </g>
                    <path d="M33,52.6329114 C43.8429576,52.6329114 52.6329114,43.8429576 52.6329114,33 C52.6329114,22.1570424 43.8429576,13.3670886 33,13.3670886 C22.1570424,13.3670886 13.3670886,22.1570424 13.3670886,33" id="Oval-3-Copy" stroke="#FFD601" stroke-width="1.5" stroke-linecap="round" transform="translate(33.000000, 33.000000) rotate(-135.000000) translate(-33.000000, -33.000000) "></path>
                    <path d="M33,55.9746835 C45.6885674,55.9746835 55.9746835,45.6885674 55.9746835,33 C55.9746835,20.3114326 45.6885674,10.0253165 33,10.0253165 C20.3114326,10.0253165 10.0253165,20.3114326 10.0253165,33" id="Oval-3-Copy-2" stroke="#FFFFFF" stroke-width="1.5" stroke-linecap="round" transform="translate(33.000000, 33.000000) rotate(-135.000000) translate(-33.000000, -33.000000) "></path>
                </g>
                <text id="rypto" font-family="Avenir-Medium, Avenir" font-size="32" font-weight="400" fill="#FFFFFF">
                    <tspan x="53" y="41">rypto</tspan>
                </text>
            </g>
        </g>
    </g>
</svg>